<?xml version="1.0" encoding="iso-8859-1"?>
<!-- Generator: Adobe Illustrator 19.0.0, SVG Export Plug-In . SVG Version: 6.00 Build 0)  -->
<svg version="1.1" id="Capa_1" xmlns="http://www.w3.org/2000/svg" xmlns:xlink="http://www.w3.org/1999/xlink" x="0px" y="0px"
	 viewBox="0 0 512 512" style="enable-background:new 0 0 512 512;" xml:space="preserve">
<circle style="fill:#647892;" cx="256" cy="261.212" r="250.787"/>
<path style="fill:#EDB87E;" d="M440.852,215.599c-3.218-99.473-89.124-179.342-184.874-179.891
	c-110.62-0.634-197.355,94.806-186.214,204.855c0.357,3.532-0.861,7.043-3.353,9.572l-53.27,54.106
	c-5.415,5.502-1.519,14.807,6.201,14.807h47.238c6.225,0,11.271,5.046,11.271,11.271v65.936c0,30.034,24.573,54.607,54.607,54.607
	h33.6c14.279,0,25.854,11.575,25.854,25.854v27.009c20.458,5.391,41.933,8.276,64.085,8.276c41.3,0,80.266-9.988,114.622-27.673
	l-9.115-93.446c0-9.925,4.324-19.41,11.969-25.74C416.152,329.802,442.799,275.777,440.852,215.599z"/>
<path style="fill:#E4A970;" d="M245.304,511.768v-35.054c0-14.279-11.575-25.854-25.854-25.854h-33.6
	c-30.034,0-54.607-24.573-54.607-54.607v-65.936c0-6.225-5.046-11.271-11.271-11.271H72.735c-7.72,0-11.617-9.306-6.201-14.807
	l49.157-49.928c4.925-5.002,7.535-11.872,7.017-18.872c-7.286-98.371,63.391-183.933,158.483-197.77
	c-8.25-1.233-16.662-1.915-25.214-1.963c-110.62-0.634-197.355,94.806-186.214,204.855c0.357,3.532-0.862,7.042-3.353,9.572
	L13.141,304.24c-5.415,5.502-1.519,14.807,6.201,14.807H66.58c6.225,0,11.271,5.046,11.271,11.271v65.936
	c0,30.034,24.573,54.607,54.607,54.607h33.6c14.279,0,25.854,11.575,25.854,25.854v27.009
	C209.06,508.244,226.927,510.994,245.304,511.768z"/>
<circle style="fill:#3997EE;" cx="252.055" cy="220.585" r="129.98"/>
<path style="fill:#1F7FE8;" d="M231.637,307.413c-62.168-35.893-83.469-115.387-47.576-177.555
	c7.226-12.516,16.222-23.373,26.487-32.443C105.511,132.768,89.93,277.066,187.066,333.146
	c49.652,28.667,110.353,20.848,151.068-15.133C303.997,329.503,265.282,326.838,231.637,307.413z"/>
<g>
	<path style="fill:#32CC65;" d="M218.201,116.284c6.069,0.223,7.24-0.535,7.872,0.728c4.43,8.859,4.458,8.58,4.253,9.288
		c-3.576,12.33-3.491,11.631-3.274,12.212c3.493,9.321,3.24,9.02,3.867,9.344l9.132,4.724c0.877,0.454,1.923-0.182,1.923-1.17
		v-11.088c0-0.605,0.412-1.132,0.997-1.278c7.44-1.86,6.888-1.712,7.042-1.781c14.918-6.669,14.969-6.335,14.969-7.55
		c0-0.343,0-19.691,0-18.458c0-0.727-0.59-1.317-1.317-1.317c-7.316,0-6.92,0.035-7.234-0.081
		c-10.236-3.777-9.486-3.539-9.824-3.539c-9.396,0-8.876-0.062-9.281,0.145c-5.807,2.978-5.436,2.816-5.716,2.864l-6.52,1.134
		c-0.64,0.111-4.813,2-5.506,1.918c-3.983-0.47-4.013-0.58-4.557-0.149l0,0c-0.686,0.542-0.664,1.589,0.044,2.101
		C217.505,116.089,217.631,116.284,218.201,116.284z"/>
	<path style="fill:#32CC65;" d="M250.962,279.318c-0.889-1.917-1.527-0.987-21.221-5.97c-1.483-0.349-7.356-7.525-8.693-8.359
		c-10.398-6.447-5.728-4.491-18.196-8.085c-0.533-0.156-0.196-0.058-9.833-5.698c-1.007-0.593-0.842-0.225-12.874-0.337
		c-0.433,0-0.852,0.121-1.224,0.336l-14.011-7.296l-3.032-6.998c-1.684-3.887-5.24-3.394-19.516-9.381
		c0.275-4.138-0.759-6.379,1.237-7.513c9.047-4.846,9.496-6.115,11.323-5.468c7.207,2.243,2.776,1.733,8.845,1.807
		c3.819,0,2.356-7.015,4.217-8.854l8.196-8.106c0.92-0.91,5.897-12.473,6.778-13.299l5.556-5.207
		c1.513-1.419,1.332-6.071,3.423-7.03c7.958-3.518,8.021-3.984,9.242-3.822c16.632,1.692,9.192,2.892,19.636-0.892
		c1.692-0.639,2.131-2.829,0.814-4.07c-5.321-5.036-2.547-1.834-11.681-13.668c-0.886-1.146-1.913-0.858-5.572-1.802
		c-3.247-0.71-1.868-7.691-5.846-7.178c-2.026,0.439-3.889-0.042-4.795,1.655l-5.753,10.787c-3.189,5.872-3.044,7.338-4.821,7.827
		c-2.231,0.351-4.93,2.244-6.43,0.06c-6.037-8.703-3.412-5.744-8.33-9.631c-1.497-1.16-0.752-2.804-0.948-5.791
		c0-2.077,1.562-2.043,10.099-9.096c0.649-0.507,5.552-2.85,6.652-3.734c1.542-1.322,0.895-3.838-1.094-4.253
		c-3.655-0.734-0.604-0.393-9.351-0.473c-1.57,0-1.932-1.125-5.442-4.117c-1.324-1.214-2.791-0.333-4.855-0.178
		c-20.282,18.902-34.511,44.209-39.46,72.705c0.03,0.079,0.305,0.502,0.317,1.171c0.368,16.619,0.123,15.745,0.499,16.57
		c6.243,13.632,5.908,13.048,6.186,13.427c6.635,8.796,6.312,9.097,7.514,9.553c0,0,0.002,0.002,0.003,0.003L152,243.906
		l2.878,6.641c1.433,3.309,3.519,2.883,19.148,11.464c0.894,1.855,1.883,2.63,1.528,4.077c-2.864,12.297-2.464,5.475,0.108,17.046
		c0.216,0.828-0.168-0.027,9.629,13.143c0.549,0.732,0.208,0.274,11.734,6.821c1.384,0.776,0.828,1.113,6.331,15.056
		c0.181,0.479-0.518-0.712,13.691,20.791c0.649,0.98,1.321,0.897,5.223,2.775c2.231,1.009,4.396-1.521,3.055-3.569l0,0
		c-1.425-2.176,1.035-3.661,4.429-9.931c0.324-0.53,0.124-0.216,3.405-11.856c0.585-2.097,2.441-1.641,10.439-4.776
		c1.543-0.542,1.46-1.768,4.512-7.227c0.789-1.513-0.354-7.256,0.648-8.861l4.869-7.803
		C254.79,285.833,253.042,284.461,250.962,279.318z"/>
</g>
<path style="fill:#23B658;" d="M179.399,251.003c-0.164,0.054-0.326,0.114-0.478,0.202l-14.011-7.296l-3.032-6.998
	c-1.684-3.887-5.24-3.394-19.516-9.381c0.275-4.138-0.759-6.379,1.237-7.513c9.047-4.846,9.496-6.115,11.323-5.468
	c7.206,2.243,2.777,1.733,8.845,1.807c3.28,0,2.669-5.166,3.608-7.793c-1.845-17.252-0.261-34.972,5.045-52.093
	c-0.872-1.14-1.258-1.166-4.017-3.347c-1.497-1.16-0.752-2.804-0.949-5.791c0-2.077,1.562-2.043,10.099-9.096
	c0.301-0.235,1.519-0.866,2.847-1.563c1.046-2.085,2.151-4.154,3.32-6.204c-0.187-0.094-0.386-0.174-0.608-0.221
	c-3.655-0.734-0.604-0.393-9.351-0.473c-1.57,0-1.932-1.125-5.442-4.117c-1.324-1.214-2.791-0.333-4.854-0.178
	c-20.674,19.267-34.621,44.839-39.46,72.705c0.03,0.079,0.305,0.502,0.317,1.171c0.368,16.619,0.123,15.745,0.499,16.57
	c6.243,13.632,5.908,13.048,6.186,13.427c6.635,8.796,6.312,9.097,7.514,9.553c0,0,0.002,0.002,0.003,0.003l13.477,4.994
	l2.878,6.641c1.433,3.309,3.519,2.883,19.148,11.464c0.894,1.855,1.883,2.63,1.528,4.077c-2.864,12.296-2.464,5.475,0.108,17.046
	c0.216,0.828-0.168-0.026,9.629,13.143c0.549,0.732,0.207,0.274,11.734,6.821c1.384,0.776,0.828,1.113,6.331,15.056
	c0.181,0.479-0.519-0.712,13.691,20.791c0.649,0.98,1.321,0.897,5.223,2.775c2.231,1.009,4.396-1.521,3.055-3.569
	c-1.425-2.176,1.035-3.661,4.429-9.931c0.324-0.53,0.124-0.216,3.405-11.856c0.523-1.875,2.077-1.717,8.115-3.901
	C214.221,299.691,192.402,278.21,179.399,251.003z"/>
<path style="fill:#32CC65;" d="M335.1,120.592c-1.697,0.342-10.581,4.522-12.488,4.522h-8.556c-1.761,0-3.354,1.044-4.057,2.66
	c-1.307,3.668-3.23,5.507-2.038,8.232l3.621,8.277c1.692,3.868,6.275,2.323,8.829,2.65c1.703,0,2.415-0.815,6.198-2.608
	c2.614-1.326,4.697,0.477,5.376,0.697c2.107,1.068,3.002,3.605,2.033,5.759c-0.794,1.392-1.05,3.793-3.575,4.728
	c-13.837,5.328-5.114,0.537-18.491,12.512c-1.216,1.174-1.656,2.938-1.135,4.546l0,0c0.814,2.511-0.739,5.173-3.328,5.699
	l-4.296,0.872c-4.516,0.916-3.404,6.03-3.543,6.61c0,2.442,1.98,4.423,4.423,4.423c4.004,0,7.407,0,11.398,0
	c3.584,0,4.211-3.363,8.663-8.694c1.484-2.005,3.192-1.612,9.845-3.705c2.833-0.786,4.313,1.283,9.284,3.781
	c2.18,1.24,4.954,0.422,6.111-1.803l1.073-2.066c2.278-4.381,9.105-2.095,9.105,2.398c-0.16,6.439,0.396,7.432-0.611,9.144
	c-0.734,1.794-4.048,4.73-1.703,8.039l3.075,4.342c2.591,3.657-1.472,6.605-1.786,7.19c-1.077,1.232-2.748,1.767-4.341,1.393
	c-10.054-2.469-10.372-2.189-11.607-3.07c-6.935-4.841-7.034-5.297-8.436-5.648c-10.048-2.295-10.989-3.288-13.141-2.52
	c-14.455,5.346-14.839,4.869-16.152,6.346c-12.298,13.871-11.758,13.134-12.148,13.772c-7.554,13.089-9.621,13.948-8.891,17.012
	c2.875,10.672,2.183,12.536,4.552,14.161c11.32,7.476,11.486,8.557,13.849,8.557c8.067,0,14.736,0,22.214,0
	c1.809,0,3.435,1.102,4.107,2.78c1.293,3.56,2.146,4.48,1.92,6.286c-2.182,16.478,0.146,7.695-7.595,23.779
	c-8.23,16.147-6.555,12.191-8.204,17.702c-1.149,3.759,2.811,7.037,6.29,5.206c3.974-2.252-1.961,2.426,22.936-22.698
	c0.508-0.524,12.116-16.354,12.624-16.929c7.886-8.886,2.491-3.966,20.341-17.893C391.092,208.179,375.739,154.383,335.1,120.592z"
	/>
<path style="fill:#FAC149;" d="M503.657,101.064c0,8.628-10.372,15.778-12.499,23.736c-2.201,8.233,3.142,19.599-1.028,26.807
	c-4.231,7.312-16.784,8.341-22.719,14.276c-5.934,5.934-6.964,18.489-14.276,22.718c-7.208,4.171-18.574-1.173-26.807,1.027
	c-7.957,2.127-15.107,12.499-23.735,12.499s-15.778-10.372-23.736-12.499c-8.233-2.201-19.599,3.142-26.808-1.028
	c-7.312-4.231-8.341-16.785-14.275-22.719c-5.934-5.934-18.489-6.964-22.718-14.276c-4.171-7.208,1.173-18.574-1.027-26.807
	c-2.127-7.957-12.499-15.107-12.499-23.735s10.372-15.778,12.5-23.735c2.2-8.233-3.142-19.599,1.027-26.807
	c4.231-7.312,16.785-8.341,22.719-14.276c5.934-5.934,6.964-18.489,14.276-22.719c7.209-4.171,18.574,1.173,26.807-1.027
	C386.815,10.372,393.965,0,402.593,0c8.628,0,15.778,10.372,23.735,12.5c8.233,2.201,19.599-3.142,26.808,1.028
	c7.312,4.231,8.341,16.785,14.275,22.719c5.934,5.934,18.489,6.964,22.718,14.276c4.171,7.209-1.173,18.574,1.027,26.807
	C493.285,85.287,503.657,92.437,503.657,101.064z"/>
<path style="fill:#EFEFEF;" d="M392.053,134.999L392.053,134.999c-3.504,0-6.864-1.392-9.341-3.869l-18.255-18.256
	c-5.159-5.159-5.159-13.524,0-18.682c5.159-5.158,13.524-5.158,18.682,0l8.914,8.914l25.766-25.766
	c5.159-5.159,13.523-5.159,18.682,0c5.158,5.159,5.158,13.523,0,18.682l-35.107,35.108
	C398.917,133.607,395.557,134.999,392.053,134.999z"/>
<path style="fill:#DDDDDD;" d="M436.83,77.705c-0.602,1.388-1.46,2.692-2.595,3.826l-32.9,32.9c-4.832,4.832-12.674,4.834-17.507,0
	l-17.108-17.108c-0.941-0.942-1.694-2-2.269-3.125c-5.154,5.159-5.153,13.52,0.004,18.678l18.255,18.256
	c5.154,5.155,13.524,5.158,18.682,0L436.5,96.024C441.543,90.98,441.643,82.885,436.83,77.705z"/>
<path style="fill:#F8A748;" d="M443.403,180.874c-55.816,0-101.064-45.249-101.064-101.065c0-25.803,9.675-49.343,25.588-67.203
	c-5.739-0.663-11.554-1.58-15.875,0.92c-7.312,4.231-8.342,16.784-14.276,22.719c-5.934,5.934-18.489,6.964-22.719,14.276
	c-4.171,7.209,1.173,18.574-1.028,26.808c-2.127,7.957-12.499,15.107-12.499,23.735s10.372,15.778,12.499,23.735
	c2.2,8.233-3.143,19.599,1.027,26.807c4.231,7.312,16.785,8.341,22.718,14.276c5.934,5.934,6.964,18.489,14.276,22.719
	c7.209,4.171,18.575-1.173,26.808,1.028c7.957,2.127,15.107,12.499,23.736,12.499c8.628,0,15.778-10.372,23.735-12.499
	c8.233-2.2,19.599,3.143,26.807-1.027c3.205-1.855,5.203-5.308,6.937-9.103C454.647,180.399,449.08,180.874,443.403,180.874z"/>
<g>
</g>
<g>
</g>
<g>
</g>
<g>
</g>
<g>
</g>
<g>
</g>
<g>
</g>
<g>
</g>
<g>
</g>
<g>
</g>
<g>
</g>
<g>
</g>
<g>
</g>
<g>
</g>
<g>
</g>
</svg>
