<?xml version="1.0" encoding="iso-8859-1"?>
<!-- Generator: Adobe Illustrator 19.0.0, SVG Export Plug-In . SVG Version: 6.00 Build 0)  -->
<svg version="1.1" id="Capa_1" xmlns="http://www.w3.org/2000/svg" xmlns:xlink="http://www.w3.org/1999/xlink" x="0px" y="0px"
	 viewBox="0 0 512 512" style="enable-background:new 0 0 512 512;" xml:space="preserve">
<circle style="fill:#3997EE;" cx="256" cy="266.1" r="245.9"/>
<g>
	<path style="fill:#97E2FF;" d="M365.356,214.24c-4.357-0.048-7.975,3.355-8.075,7.715c-0.217,9.534-1.793,18.947-4.685,27.977
		c-1.33,4.154,0.959,8.599,5.112,9.929c4.161,1.335,8.602-0.968,9.929-5.113c3.354-10.473,5.181-21.386,5.433-32.433
		C373.17,217.956,369.717,214.34,365.356,214.24z"/>
	<path style="fill:#97E2FF;" d="M234.813,107.024c-10.932,2.251-21.457,6.083-31.284,11.392c-3.837,2.073-5.268,6.864-3.195,10.701
		c2.066,3.825,6.855,5.273,10.701,3.195c8.47-4.576,17.542-7.878,26.963-9.819c4.272-0.879,7.022-5.055,6.142-9.327
		C243.26,108.894,239.079,106.143,234.813,107.024z"/>
	<path style="fill:#97E2FF;" d="M240.042,58.296c-18.946,2.099-37.19,7.464-54.224,15.947c-3.904,1.944-5.492,6.686-3.548,10.59
		c1.944,3.903,6.681,5.492,10.59,3.549c15.367-7.653,31.827-12.494,48.921-14.388c4.335-0.48,7.46-4.383,6.98-8.719
		C248.28,60.941,244.373,57.806,240.042,58.296z"/>
	<path style="fill:#97E2FF;" d="M412.68,214.24c-0.042-0.001-0.084-0.001-0.127-0.001c-4.303,0-7.825,3.454-7.893,7.772
		c-0.304,19.249-4.29,37.919-11.846,55.491c-1.723,4.006,0.128,8.651,4.134,10.374c4.001,1.723,8.65-0.124,10.374-4.135
		c8.376-19.475,12.793-40.161,13.13-61.482C420.521,217.9,417.041,214.309,412.68,214.24z"/>
	<path style="fill:#97E2FF;" d="M244.547,13.536c-26.407,1.712-51.853,8.36-75.63,19.756c-3.933,1.886-5.593,6.603-3.708,10.536
		c1.882,3.927,6.596,5.595,10.535,3.708c21.949-10.521,45.441-16.657,69.825-18.238c4.352-0.283,7.652-4.039,7.37-8.392
		C252.656,16.552,248.897,13.239,244.547,13.536z"/>
	<path style="fill:#97E2FF;" d="M456.783,211.756c-4.361,0-7.897,3.535-7.897,7.897c0,29.274-6.461,57.368-19.203,83.5
		c-2.577,5.285,1.325,11.36,7.092,11.36c2.924,0,5.736-1.632,7.104-4.438c13.803-28.307,20.801-58.729,20.801-90.422
		C464.68,215.291,461.145,211.756,456.783,211.756z"/>
	<path style="fill:#97E2FF;" d="M149.519,376.514c-20.128-13.96-37.179-31.396-50.681-51.825c-2.404-3.639-7.303-4.64-10.942-2.234
		c-3.638,2.404-4.639,7.304-2.234,10.942c14.614,22.114,33.07,40.987,54.856,56.097c3.572,2.477,8.496,1.607,10.99-1.989
		C153.993,383.919,153.102,378.999,149.519,376.514z"/>
	<path style="fill:#97E2FF;" d="M203.497,302.478c-7.515-4.965-14.328-10.934-20.251-17.74c-2.864-3.292-7.852-3.636-11.141-0.774
		c-3.29,2.863-3.637,7.851-0.774,11.141c6.86,7.884,14.753,14.799,23.459,20.552c3.639,2.404,8.538,1.404,10.942-2.235
		C208.136,309.782,207.135,304.884,203.497,302.478z"/>
	<path style="fill:#97E2FF;" d="M168.058,354.767c3.643,2.431,8.541,1.432,10.953-2.182c2.423-3.627,1.446-8.53-2.181-10.953
		c-14.547-9.715-27.136-21.822-37.416-35.986c-2.562-3.529-7.5-4.316-11.03-1.752c-3.53,2.561-4.315,7.5-1.753,11.029
		C138.014,330.605,151.952,344.011,168.058,354.767z"/>
	<path style="fill:#97E2FF;" d="M180.656,394.92l-10.244-5.4c-3.858-2.033-8.634-0.554-10.668,3.304
		c-2.034,3.858-0.554,8.634,3.304,10.668c9.624,4.792,10.688,6.312,13.919,6.312C185.193,409.805,187.914,398.746,180.656,394.92z"
		/>
	<path style="fill:#97E2FF;" d="M197.937,352.438l-1.931-0.69c-4.106-1.468-8.627,0.671-10.094,4.778
		c-1.468,4.107,0.671,8.627,4.779,10.094l1.931,0.69c4.107,1.467,8.626-0.671,10.094-4.778
		C204.184,358.426,202.045,353.906,197.937,352.438z"/>
	<path style="fill:#97E2FF;" d="M446.63,195.003c0.628,3.878,3.98,6.635,7.785,6.635c0.42,0,0.845-0.033,1.272-0.103
		c4.305-0.697,7.23-4.753,6.533-9.058l-1.852-11.431c-0.697-4.305-4.755-7.236-9.058-6.533c-4.305,0.697-7.23,4.753-6.533,9.058
		L446.63,195.003z"/>
	<path style="fill:#97E2FF;" d="M402.747,199.184c1.055,3.381,4.172,5.547,7.536,5.547c0.779,0,1.572-0.116,2.356-0.361
		c4.163-1.3,6.485-5.727,5.185-9.891l-0.611-1.957c-1.299-4.165-5.727-6.482-9.891-5.186c-4.163,1.3-6.485,5.727-5.185,9.891
		L402.747,199.184z"/>
	<path style="fill:#97E2FF;" d="M143.722,66.695l9.79-6.186c3.687-2.329,4.787-7.207,2.457-10.894
		c-2.33-3.685-7.207-4.787-10.894-2.457l-9.79,6.186c-3.687,2.329-4.787,7.207-2.457,10.894
		C135.155,67.919,140.032,69.029,143.722,66.695z"/>
	<path style="fill:#97E2FF;" d="M173.002,100.569l1.561-1.329c3.322-2.827,3.722-7.811,0.896-11.132
		c-2.827-3.321-7.811-3.721-11.132-0.895l-1.561,1.328c-3.322,2.827-3.722,7.811-0.896,11.132
		C164.682,102.979,169.665,103.409,173.002,100.569z"/>
</g>
<polygon style="fill:#EFEFEF;" points="237.705,314.971 225.431,491.554 258.108,491.554 290.786,491.554 278.511,314.971 "/>
<polygon style="fill:#DDDDDD;" points="258.463,314.971 237.705,314.971 225.431,491.554 253.473,491.554 "/>
<path style="fill:#FC5B6F;" d="M237.705,314.971h40.806l-2.719-39.114c-5.605,1.677-11.534,2.577-17.669,2.577
	c-6.146,0-12.085-0.904-17.699-2.587L237.705,314.971z"/>
<path style="fill:#EF4B67;" d="M259.496,278.408c-0.457,0.01-0.913,0.025-1.372,0.025c-6.146,0-12.085-0.904-17.699-2.587
	l-2.72,39.124h20.758L259.496,278.408z"/>
<path style="fill:#DDDDDD;" d="M303.986,486.691H212.23c-7.147,0-12.94,5.793-12.94,12.94c0,2.228,0.564,4.324,1.555,6.154
	C218.576,509.849,237.036,512,256,512c20.671,0,40.741-2.565,59.923-7.368c0.645-1.539,1.004-3.228,1.004-5.001
	C316.927,492.485,311.133,486.691,303.986,486.691z"/>
<path style="fill:#F97D91;" d="M278.512,322.868h-40.806c-4.361,0-7.897-3.535-7.897-7.897s3.536-7.897,7.897-7.897h40.806
	c4.361,0,7.897,3.535,7.897,7.897C286.409,319.332,282.873,322.868,278.512,322.868z"/>
<circle style="fill:#DDDDDD;" cx="258.11" cy="220.11" r="61.687"/>
<path style="fill:#CECCCA;" d="M240.438,230.314c-13.414-23.233-9.987-51.558,6.478-70.87c-6.737,1.243-13.381,3.625-19.652,7.246
	c-29.505,17.035-39.613,54.762-22.579,84.266s54.762,39.613,84.266,22.579c6.271-3.621,11.657-8.183,16.101-13.396
	C280.096,264.742,253.852,253.548,240.438,230.314z"/>
<path style="fill:#EFEFEF;" d="M443.474,311.352l-152.85-108.208c-1.744-1.235-2.862-3.171-3.059-5.299L270.249,11.044
	C269.669,4.786,264.419,0,258.134,0l0,0c-6.284,0-11.535,4.786-12.115,11.044l-17.32,186.843c-0.195,2.101-1.298,4.013-3.021,5.232
	L72.458,311.59c-5.129,3.631-6.649,10.571-3.507,16.014c3.142,5.443,9.912,7.596,15.621,4.97l170.485-78.428
	c1.953-0.898,4.201-0.898,6.154,0l170.485,78.428c5.835,2.684,12.777,0.376,15.824-5.333
	C450.44,321.765,448.539,314.937,443.474,311.352z"/>
<path style="fill:#DDDDDD;" d="M258.134,0c-6.284,0-11.535,4.786-12.115,11.044l-17.32,186.843
	c-0.195,2.101-1.298,4.013-3.021,5.232L72.458,311.59c-5.129,3.631-6.649,10.571-3.507,16.014l189.183-107.95V0z"/>
<g>
	<circle style="fill:#CECCCA;" cx="258.11" cy="219.65" r="13.147"/>
	<path style="fill:#CECCCA;" d="M199.289,499.632c0,2.228,0.564,4.324,1.555,6.154c14.33,3.284,29.144,5.295,44.307,5.954
		c-1.941-2.613-3.103-5.838-3.103-9.343c0-8.674,7.031-15.705,15.705-15.705H212.23
		C205.083,486.691,199.289,492.485,199.289,499.632z"/>
</g>
<g>
	<path style="fill:#57A7FF;" d="M488.377,346.68H373.81c-6.973,0-12.625,5.653-12.625,12.625s5.652,12.625,12.625,12.625h19.618
		c6.973,0,12.625,5.652,12.625,12.625c0,6.972-5.652,12.624-12.625,12.624c-9.953,0-70.266,0-78.987,0
		c-6.973,0-12.625,5.653-12.625,12.625s5.652,12.625,12.625,12.625c14.121,0,56.68,0,61.432,0c6.973,0,12.625,5.652,12.625,12.625
		s-5.652,12.625-12.625,12.625h-5.317c-6.972,0-12.625,5.653-12.625,12.625s5.653,12.625,12.625,12.625h18.485
		C434.856,443.399,470.216,399.06,488.377,346.68z"/>
	<path style="fill:#57A7FF;" d="M150.213,123.852H55.396c-16.123,22.697-28.484,48.25-36.191,75.75h91.898
		c6.973,0,12.625-5.652,12.625-12.625s-5.652-12.625-12.625-12.625H94.868c-6.972,0-12.625-5.652-12.625-12.625
		c0-6.972,5.652-12.625,12.625-12.625h55.345c6.972,0,12.625-5.652,12.625-12.625C162.838,129.504,157.185,123.852,150.213,123.852z
		"/>
	<path style="fill:#57A7FF;" d="M76.245,250.101H57.431c-6.972,0-12.625-5.652-12.625-12.625s5.652-12.625,12.625-12.625h18.814
		c6.973,0,12.625,5.652,12.625,12.625C88.87,244.449,83.218,250.101,76.245,250.101z"/>
</g>
<g>
</g>
<g>
</g>
<g>
</g>
<g>
</g>
<g>
</g>
<g>
</g>
<g>
</g>
<g>
</g>
<g>
</g>
<g>
</g>
<g>
</g>
<g>
</g>
<g>
</g>
<g>
</g>
<g>
</g>
</svg>
